<?xml version="1.0" encoding="utf-8"?>
<!-- Generator: Adobe Illustrator 27.5.0, SVG Export Plug-In . SVG Version: 6.00 Build 0)  -->
<svg version="1.1" id="Layer_1" xmlns="http://www.w3.org/2000/svg" xmlns:xlink="http://www.w3.org/1999/xlink" x="0px" y="0px"
	 viewBox="0 0 293.411 398.198" style="enable-background:new 0 0 293.411 398.198;" xml:space="preserve">
<g>
	<g>
		<path style="fill:#FFFFFF;" d="M37.057,388.24c0.086,0.002,0.172,0.003,0.258,0.003h229.625c0.086,0,0.172-0.001,0.258-0.003
			c1.444-0.039,8.918-0.584,14.253-7.473c3.068-3.959,4.623-9.019,4.623-15.038V43.306c0-16.138-11.288-22.302-18.876-22.508
			c-0.086-0.002-0.172-0.004-0.258-0.004h-0.514c-0.043,0-0.087,0.001-0.13,0.001H37.315c-0.086,0-0.172,0.001-0.258,0.004
			c-7.587,0.206-18.876,6.371-18.876,22.511v11.784c-0.005,0.126-0.008,0.252-0.008,0.379v300.455c0,0.13,0.003,0.26,0.008,0.389
			v9.415C18.182,381.869,29.47,388.033,37.057,388.24z"/>
		<path style="fill:#F1F1F1;" d="M36.072,387.254c0.086,0.003,0.172,0.004,0.258,0.004h229.625c0.086,0,0.172-0.001,0.258-0.004
			c1.444-0.039,8.917-0.583,14.253-7.473c3.068-3.96,4.624-9.019,4.624-15.039V42.321c0-16.137-11.289-22.302-18.876-22.508
			c-0.086-0.002-0.172-0.004-0.258-0.004h-0.514c-0.044,0-0.087,0.001-0.13,0.001H36.33c-0.086,0-0.172,0.001-0.258,0.004
			c-7.587,0.226-18.876,6.371-18.876,22.511v11.784c-0.005,0.126-0.008,0.252-0.008,0.38v300.454c0,0.13,0.003,0.26,0.008,0.389
			v9.414C17.197,380.884,28.484,387.048,36.072,387.254z"/>
		<path style="fill:#E2E2E2;" d="M35.086,386.269c0.086,0.002,0.172,0.004,0.259,0.004H264.97c0.086,0,0.173-0.002,0.258-0.004
			c1.444-0.04,8.917-0.584,14.253-7.473c3.068-3.959,4.624-9.018,4.624-15.038V41.335c0-16.138-11.288-22.302-18.876-22.508
			c-0.085-0.002-0.172-0.004-0.258-0.004h-0.514c-0.044,0-0.087,0.001-0.13,0.001H35.345c-0.086,0-0.172,0.001-0.258,0.004
			c-7.586,0.226-18.875,6.37-18.875,22.51v11.785c-0.006,0.125-0.008,0.252-0.008,0.38v300.454c0,0.13,0.003,0.26,0.008,0.389v9.415
			C16.211,379.898,27.499,386.062,35.086,386.269z"/>
		<path style="fill:#D4D4D4;" d="M34.101,385.283c0.086,0.003,0.172,0.004,0.259,0.004h229.625c0.086,0,0.172-0.001,0.258-0.004
			c1.444-0.039,8.917-0.583,14.252-7.472c3.068-3.96,4.624-9.019,4.624-15.039V40.35c0-16.137-11.288-22.302-18.875-22.508
			c-0.086-0.002-0.172-0.004-0.259-0.004h-0.514c-0.044,0-0.087,0-0.13,0.001H34.359c-0.086,0-0.172,0.001-0.258,0.004
			c-7.587,0.226-18.876,6.371-18.876,22.51v11.785c-0.005,0.125-0.007,0.252-0.007,0.379v300.454c0,0.13,0.003,0.26,0.008,0.389
			v9.415C15.226,378.913,26.513,385.077,34.101,385.283z"/>
		<path style="fill:#C5C5C5;" d="M33.116,384.298c0.086,0.002,0.172,0.004,0.258,0.004H263c0.085,0,0.172-0.001,0.258-0.004
			c1.444-0.039,8.918-0.583,14.253-7.472c3.068-3.959,4.623-9.019,4.623-15.039V39.365c0-16.138-11.288-22.302-18.875-22.508
			c-0.086-0.002-0.172-0.004-0.258-0.004h-0.514c-0.043,0-0.087,0-0.13,0.001H33.374c-0.086,0-0.172,0.001-0.258,0.004
			c-7.587,0.226-18.876,6.371-18.876,22.51v11.785c-0.005,0.126-0.007,0.252-0.007,0.379v300.454c0,0.13,0.003,0.26,0.008,0.389
			v9.415C14.24,377.927,25.528,384.092,33.116,384.298z"/>
		<path style="fill:#B7B7B7;" d="M32.13,383.313c0.087,0.003,0.172,0.004,0.258,0.004h229.626c0.086,0,0.172-0.001,0.258-0.004
			c1.444-0.039,8.917-0.583,14.253-7.472c3.068-3.96,4.623-9.019,4.623-15.039V38.379c0-16.137-11.288-22.302-18.875-22.508
			c-0.086-0.003-0.172-0.004-0.258-0.004H261.5c-0.043,0-0.087,0.001-0.13,0.001H32.389c-0.086,0-0.172,0.001-0.258,0.004
			c-7.587,0.226-18.876,6.371-18.876,22.511v11.784c-0.005,0.126-0.007,0.253-0.007,0.379v300.455c0,0.13,0.003,0.26,0.008,0.389
			v9.415C13.255,376.942,24.543,383.107,32.13,383.313z"/>
		<path style="fill:#A8A8A8;" d="M31.145,382.327c0.086,0.002,0.172,0.004,0.258,0.004h229.625c0.086,0,0.172-0.001,0.258-0.004
			c1.444-0.039,8.918-0.583,14.253-7.473c3.068-3.959,4.624-9.018,4.624-15.038V37.394c0-16.138-11.289-22.302-18.876-22.508
			c-0.086-0.002-0.172-0.003-0.258-0.003h-0.514c-0.044,0-0.087,0-0.13,0.001H31.403c-0.085,0-0.172,0.001-0.258,0.003
			c-7.586,0.226-18.876,6.371-18.876,22.511v11.785c-0.005,0.125-0.007,0.252-0.007,0.379v300.454c0,0.13,0.002,0.26,0.008,0.389
			v9.415C12.269,375.957,23.557,382.121,31.145,382.327z"/>
		<path style="fill:#9A9A9A;" d="M30.159,381.342c0.086,0.003,0.172,0.004,0.259,0.004h229.625c0.086,0,0.172-0.001,0.258-0.004
			c1.444-0.039,8.917-0.583,14.253-7.472c3.068-3.96,4.623-9.019,4.623-15.039V36.408c0-16.137-11.288-22.302-18.875-22.508
			c-0.086-0.002-0.172-0.004-0.259-0.004h-0.514c-0.044,0-0.087,0-0.13,0.001H30.418c-0.086,0-0.172,0.001-0.258,0.004
			c-7.587,0.226-18.876,6.37-18.876,22.51v11.785c-0.005,0.125-0.007,0.252-0.007,0.379V349.03c0,0.13,0.003,0.26,0.008,0.389v9.414
			C11.284,374.971,22.572,381.135,30.159,381.342z"/>
		<path style="fill:#8B8B8B;" d="M29.174,380.357c0.086,0.002,0.172,0.004,0.258,0.004h229.626c0.085,0,0.172-0.001,0.258-0.004
			c1.444-0.039,8.918-0.583,14.252-7.472c3.068-3.96,4.624-9.019,4.624-15.039V35.423c0-16.137-11.288-22.302-18.875-22.508
			c-0.086-0.002-0.172-0.004-0.258-0.004h-0.514c-0.043,0-0.087,0-0.13,0.001H29.433c-0.086,0-0.172,0.001-0.258,0.004
			c-7.587,0.226-18.877,6.371-18.877,22.51v11.785c-0.005,0.125-0.007,0.252-0.007,0.379v300.454c0,0.13,0.003,0.26,0.008,0.389
			v9.415C10.299,373.986,21.587,380.15,29.174,380.357z"/>
		<path style="fill:#7D7D7D;" d="M28.189,379.371c0.087,0.002,0.172,0.004,0.258,0.004h229.625c0.086,0,0.172-0.002,0.258-0.004
			c1.444-0.039,8.917-0.583,14.253-7.472c3.068-3.96,4.623-9.019,4.623-15.039V34.438c0-16.138-11.288-22.302-18.875-22.509
			c-0.086-0.002-0.172-0.003-0.259-0.003h-0.514c-0.044,0-0.087,0-0.13,0H28.447c-0.086,0-0.172,0.002-0.258,0.004
			c-7.586,0.226-18.876,6.371-18.876,22.51v11.785c-0.005,0.125-0.007,0.252-0.007,0.379v300.454c0,0.13,0.003,0.26,0.008,0.389
			v9.414C9.314,373,20.601,379.165,28.189,379.371z"/>
		<path style="fill:#6E6E6E;" d="M27.203,378.386c0.086,0.002,0.172,0.003,0.258,0.003h229.626c0.086,0,0.172-0.001,0.258-0.003
			c1.444-0.039,8.918-0.583,14.253-7.473c3.068-3.959,4.624-9.019,4.624-15.038V33.453c0-16.138-11.289-22.302-18.876-22.509
			c-0.086-0.002-0.172-0.003-0.258-0.003h-0.514c-0.043,0-0.087,0.001-0.13,0.001H27.461c-0.085,0-0.172,0.001-0.258,0.003
			c-7.587,0.226-18.876,6.371-18.876,22.511V45.24c-0.005,0.126-0.007,0.252-0.007,0.379v300.455c0,0.13,0.002,0.26,0.008,0.389
			v9.415C8.328,372.015,19.616,378.179,27.203,378.386z"/>
		<path style="fill:#606060;" d="M26.218,377.4c0.087,0.003,0.172,0.004,0.258,0.004h229.625c0.086,0,0.172-0.001,0.258-0.004
			c1.444-0.039,8.917-0.583,14.253-7.473c3.068-3.96,4.624-9.019,4.624-15.039V32.467c0-16.138-11.289-22.302-18.876-22.508
			c-0.086-0.003-0.172-0.004-0.258-0.004h-0.514c-0.044,0-0.087,0-0.13,0.001H26.476c-0.086,0-0.172,0.001-0.258,0.003
			C18.631,10.166,7.342,16.33,7.342,32.47v11.785c-0.005,0.125-0.007,0.252-0.007,0.379v300.454c0,0.13,0.003,0.26,0.008,0.389
			v9.414C7.343,371.03,18.63,377.194,26.218,377.4z"/>
	</g>
	<path style="fill:#FFFFFF;" d="M26.218,377.4c0.087,0.003,0.172,0.004,0.258,0.004h229.625c0.086,0,0.172-0.001,0.258-0.004
		c1.444-0.039,8.917-0.583,14.253-7.473c3.068-3.96,4.624-9.019,4.624-15.039V32.467c0-16.138-11.289-22.302-18.876-22.508
		c-0.086-0.003-0.172-0.004-0.258-0.004h-0.514c-0.044,0-0.087,0-0.13,0.001H26.476c-0.086,0-0.172,0.001-0.258,0.003
		C18.631,10.166,7.342,16.33,7.342,32.47v11.785c-0.005,0.125-0.007,0.252-0.007,0.379v300.454c0,0.13,0.003,0.26,0.008,0.389v9.414
		C7.343,371.03,18.63,377.194,26.218,377.4z"/>
	<g>
		<g>
			<g>
				<g>
					<path style="fill:#FFFFFF;" d="M256.102,19.456H145.975h-9.373H26.476c0,0-9.634,0.262-9.634,13.014l0,86.915v148.59v86.917
						c0,12.75,9.633,13.012,9.633,13.012h110.126h9.373h110.126c0,0,9.633-0.262,9.633-13.012v-86.917v-148.59V32.47
						C265.734,19.718,256.102,19.456,256.102,19.456z"/>
					<defs>
						<filter id="Adobe_OpacityMaskFilter" filterUnits="userSpaceOnUse" x="16.843" y="207.504" width="248.892" height="160.4">
							<feFlood  style="flood-color:white;flood-opacity:1" result="back"/>
							<feBlend  in="SourceGraphic" in2="back" mode="normal"/>
						</filter>
					</defs>
					<mask maskUnits="userSpaceOnUse" x="16.843" y="207.504" width="248.892" height="160.4" id="SVGID_1_">
						<g style="filter:url(#Adobe_OpacityMaskFilter);">
							<defs>
								
									<filter id="Adobe_OpacityMaskFilter_00000088836542174568939390000008567596308747851933_" filterUnits="userSpaceOnUse" x="16.843" y="207.504" width="248.892" height="160.4">
									<feFlood  style="flood-color:white;flood-opacity:1" result="back"/>
									<feBlend  in="SourceGraphic" in2="back" mode="normal"/>
								</filter>
							</defs>
							<mask maskUnits="userSpaceOnUse" x="16.843" y="207.504" width="248.892" height="160.4" id="SVGID_1_">
								<g style="filter:url(#Adobe_OpacityMaskFilter_00000088836542174568939390000008567596308747851933_);">
								</g>
							</mask>
							
								<radialGradient id="SVGID_00000171698290951016991260000001776021497968463758_" cx="137.4372" cy="-99.3356" r="503.8668" gradientUnits="userSpaceOnUse">
								<stop  offset="0.6156" style="stop-color:#000000"/>
								<stop  offset="0.7516" style="stop-color:#020202"/>
								<stop  offset="0.8037" style="stop-color:#090909"/>
								<stop  offset="0.8413" style="stop-color:#151515"/>
								<stop  offset="0.8721" style="stop-color:#262626"/>
								<stop  offset="0.8986" style="stop-color:#3C3C3C"/>
								<stop  offset="0.9222" style="stop-color:#585858"/>
								<stop  offset="0.9436" style="stop-color:#797979"/>
								<stop  offset="0.9634" style="stop-color:#9F9F9F"/>
								<stop  offset="0.9817" style="stop-color:#CBCBCB"/>
								<stop  offset="0.9982" style="stop-color:#F9F9F9"/>
								<stop  offset="1" style="stop-color:#FFFFFF"/>
							</radialGradient>
							<path style="mask:url(#SVGID_1_);fill:url(#SVGID_00000171698290951016991260000001776021497968463758_);" d="
								M163.594,207.517c-48.917,0.01-97.834,0.031-146.751,0.051v147.324c0,12.75,9.633,13.012,9.633,13.012h229.625
								c0,0,9.633-0.262,9.633-13.012V207.504C231.688,207.508,197.641,207.509,163.594,207.517z"/>
						</g>
					</mask>
					
						<radialGradient id="SVGID_00000008127612997337819360000002358695943743214476_" cx="137.4372" cy="-99.3356" r="503.8668" gradientUnits="userSpaceOnUse">
						<stop  offset="0.6156" style="stop-color:#FFFFFF"/>
						<stop  offset="0.7878" style="stop-color:#FDFDFD"/>
						<stop  offset="0.8537" style="stop-color:#F6F6F6"/>
						<stop  offset="0.9014" style="stop-color:#EAEAEA"/>
						<stop  offset="0.9403" style="stop-color:#D9D9D9"/>
						<stop  offset="0.9735" style="stop-color:#C3C3C3"/>
						<stop  offset="1" style="stop-color:#ABABAB"/>
					</radialGradient>
					<path style="fill:url(#SVGID_00000008127612997337819360000002358695943743214476_);" d="M163.594,207.517
						c-48.917,0.01-97.834,0.031-146.751,0.051v147.324c0,12.75,9.633,13.012,9.633,13.012h229.625c0,0,9.633-0.262,9.633-13.012
						V207.504C231.688,207.508,197.641,207.509,163.594,207.517z"/>
					<defs>
						
							<filter id="Adobe_OpacityMaskFilter_00000141441286597780795210000002140493508355058328_" filterUnits="userSpaceOnUse" x="16.842" y="19.456" width="248.892" height="173.937">
							<feFlood  style="flood-color:white;flood-opacity:1" result="back"/>
							<feBlend  in="SourceGraphic" in2="back" mode="normal"/>
						</filter>
					</defs>
					
						<mask maskUnits="userSpaceOnUse" x="16.842" y="19.456" width="248.892" height="173.937" id="SVGID_00000118389098980789553480000016380837151704203169_">
						<g style="filter:url(#Adobe_OpacityMaskFilter_00000141441286597780795210000002140493508355058328_);">
							<defs>
								
									<filter id="Adobe_OpacityMaskFilter_00000011731680729000988120000003823873451521501075_" filterUnits="userSpaceOnUse" x="16.842" y="19.456" width="248.892" height="173.937">
									<feFlood  style="flood-color:white;flood-opacity:1" result="back"/>
									<feBlend  in="SourceGraphic" in2="back" mode="normal"/>
								</filter>
							</defs>
							
								<mask maskUnits="userSpaceOnUse" x="16.842" y="19.456" width="248.892" height="173.937" id="SVGID_00000118389098980789553480000016380837151704203169_">
								<g style="filter:url(#Adobe_OpacityMaskFilter_00000011731680729000988120000003823873451521501075_);">
								</g>
							</mask>
							
								<radialGradient id="SVGID_00000041263700138438918110000000813229827995538594_" cx="142.4225" cy="341.0065" r="361.0523" gradientUnits="userSpaceOnUse">
								<stop  offset="0.6156" style="stop-color:#000000"/>
								<stop  offset="0.7096" style="stop-color:#020202"/>
								<stop  offset="0.7623" style="stop-color:#0A0A0A"/>
								<stop  offset="0.8047" style="stop-color:#181818"/>
								<stop  offset="0.8418" style="stop-color:#2C2C2C"/>
								<stop  offset="0.8752" style="stop-color:#464646"/>
								<stop  offset="0.9062" style="stop-color:#656565"/>
								<stop  offset="0.9352" style="stop-color:#8A8A8A"/>
								<stop  offset="0.9626" style="stop-color:#B6B6B6"/>
								<stop  offset="0.9879" style="stop-color:#E5E5E5"/>
								<stop  offset="1" style="stop-color:#FFFFFF"/>
							</radialGradient>
							
								<path style="mask:url(#SVGID_00000118389098980789553480000016380837151704203169_);fill:url(#SVGID_00000041263700138438918110000000813229827995538594_);" d="
								M16.843,193.303c20.946,0.015,41.891,0.031,62.837,0.043c60.362,0.035,120.725,0.038,181.086,0.046
								c1.657,0,3.311-0.001,4.968-0.001V32.47c0-12.752-9.633-13.014-9.633-13.014H26.476c0,0-9.634,0.262-9.634,13.014l0,86.915
								V193.303z"/>
						</g>
					</mask>
					
						<radialGradient id="SVGID_00000183236655743948934650000017580412192070208642_" cx="142.4225" cy="341.0065" r="361.0523" gradientUnits="userSpaceOnUse">
						<stop  offset="0.6156" style="stop-color:#FFFFFF"/>
						<stop  offset="0.747" style="stop-color:#FDFDFD"/>
						<stop  offset="0.8206" style="stop-color:#F5F5F5"/>
						<stop  offset="0.8799" style="stop-color:#E7E7E7"/>
						<stop  offset="0.9316" style="stop-color:#D3D3D3"/>
						<stop  offset="0.9778" style="stop-color:#BABABA"/>
						<stop  offset="1" style="stop-color:#ABABAB"/>
					</radialGradient>
					<path style="fill:url(#SVGID_00000183236655743948934650000017580412192070208642_);" d="M16.843,193.303
						c20.946,0.015,41.891,0.031,62.837,0.043c60.362,0.035,120.725,0.038,181.086,0.046c1.657,0,3.311-0.001,4.968-0.001V32.47
						c0-12.752-9.633-13.014-9.633-13.014H26.476c0,0-9.634,0.262-9.634,13.014l0,86.915V193.303z"/>
				</g>
				<g>
					<defs>
						
							<filter id="Adobe_OpacityMaskFilter_00000081632425039955576100000006058640769714093486_" filterUnits="userSpaceOnUse" x="21.427" y="19.455" width="244.309" height="348.449">
							<feFlood  style="flood-color:white;flood-opacity:1" result="back"/>
							<feBlend  in="SourceGraphic" in2="back" mode="normal"/>
						</filter>
					</defs>
					
						<mask maskUnits="userSpaceOnUse" x="21.427" y="19.455" width="244.309" height="348.449" id="SVGID_00000117667690009387395730000014647026920316326048_">
						<g style="filter:url(#Adobe_OpacityMaskFilter_00000081632425039955576100000006058640769714093486_);">
							<defs>
								
									<filter id="Adobe_OpacityMaskFilter_00000101076929649310244240000008988292911842012315_" filterUnits="userSpaceOnUse" x="21.427" y="19.455" width="244.309" height="348.449">
									<feFlood  style="flood-color:white;flood-opacity:1" result="back"/>
									<feBlend  in="SourceGraphic" in2="back" mode="normal"/>
								</filter>
							</defs>
							
								<mask maskUnits="userSpaceOnUse" x="21.427" y="19.455" width="244.309" height="348.449" id="SVGID_00000117667690009387395730000014647026920316326048_">
								<g style="filter:url(#Adobe_OpacityMaskFilter_00000101076929649310244240000008988292911842012315_);">
								</g>
							</mask>
							
								<radialGradient id="SVGID_00000016763404779227071720000008826670024697641868_" cx="6.196" cy="19.2983" r="400.8943" gradientUnits="userSpaceOnUse">
								<stop  offset="0.0988" style="stop-color:#000000"/>
								<stop  offset="1" style="stop-color:#FFFFFF"/>
							</radialGradient>
							
								<path style="mask:url(#SVGID_00000117667690009387395730000014647026920316326048_);fill:url(#SVGID_00000016763404779227071720000008826670024697641868_);" d="
								M265.23,32.448v86.791v148.376l0.001,86.789c0,12.733-9.644,12.995-9.644,12.995H145.352h-9.383H25.729
								c0,0-2.078-0.058-4.303-1.392c2.482,1.822,5.049,1.897,5.049,1.897h110.128h9.373h110.125c0,0,9.634-0.263,9.634-13.015
								v-86.915v-148.59V32.467c0-12.75-9.634-13.012-9.634-13.012h-0.514C255.588,19.455,265.23,19.716,265.23,32.448z"/>
						</g>
					</mask>
					
						<radialGradient id="SVGID_00000064326255319819818430000015504326538843525040_" cx="6.196" cy="19.2983" r="400.8943" gradientUnits="userSpaceOnUse">
						<stop  offset="0.0988" style="stop-color:#FFFFFF"/>
						<stop  offset="1" style="stop-color:#ABABAB"/>
					</radialGradient>
					<path style="fill:url(#SVGID_00000064326255319819818430000015504326538843525040_);" d="M265.23,32.448v86.791v148.376
						l0.001,86.789c0,12.733-9.644,12.995-9.644,12.995H145.352h-9.383H25.729c0,0-2.078-0.058-4.303-1.392
						c2.482,1.822,5.049,1.897,5.049,1.897h110.128h9.373h110.125c0,0,9.634-0.263,9.634-13.015v-86.915v-148.59V32.467
						c0-12.75-9.634-13.012-9.634-13.012h-0.514C255.588,19.455,265.23,19.716,265.23,32.448z"/>
				</g>
				<defs>
					
						<filter id="Adobe_OpacityMaskFilter_00000011003512432639646110000016858034197293726346_" filterUnits="userSpaceOnUse" x="16.842" y="19.456" width="244.309" height="348.448">
						<feFlood  style="flood-color:white;flood-opacity:1" result="back"/>
						<feBlend  in="SourceGraphic" in2="back" mode="normal"/>
					</filter>
				</defs>
				
					<mask maskUnits="userSpaceOnUse" x="16.842" y="19.456" width="244.309" height="348.448" id="SVGID_00000099631636581619848660000006146853743690660773_">
					<g style="filter:url(#Adobe_OpacityMaskFilter_00000011003512432639646110000016858034197293726346_);">
						<defs>
							
								<filter id="Adobe_OpacityMaskFilter_00000131362728202143821340000018276861261478071204_" filterUnits="userSpaceOnUse" x="16.842" y="19.456" width="244.309" height="348.448">
								<feFlood  style="flood-color:white;flood-opacity:1" result="back"/>
								<feBlend  in="SourceGraphic" in2="back" mode="normal"/>
							</filter>
						</defs>
						
							<mask maskUnits="userSpaceOnUse" x="16.842" y="19.456" width="244.309" height="348.448" id="SVGID_00000099631636581619848660000006146853743690660773_">
							<g style="filter:url(#Adobe_OpacityMaskFilter_00000131362728202143821340000018276861261478071204_);">
							</g>
						</mask>
						
							<radialGradient id="SVGID_00000181049633631096818100000009445844754574356155_" cx="84.827" cy="120.8646" r="341.4543" gradientUnits="userSpaceOnUse">
							<stop  offset="0" style="stop-color:#000000"/>
							<stop  offset="0.0074" style="stop-color:#090909"/>
							<stop  offset="0.0477" style="stop-color:#373737"/>
							<stop  offset="0.0931" style="stop-color:#626262"/>
							<stop  offset="0.1419" style="stop-color:#888888"/>
							<stop  offset="0.195" style="stop-color:#A8A8A8"/>
							<stop  offset="0.2537" style="stop-color:#C4C4C4"/>
							<stop  offset="0.32" style="stop-color:#DADADA"/>
							<stop  offset="0.3974" style="stop-color:#EBEBEB"/>
							<stop  offset="0.4931" style="stop-color:#F6F6F6"/>
							<stop  offset="0.6274" style="stop-color:#FDFDFD"/>
							<stop  offset="1" style="stop-color:#FFFFFF"/>
						</radialGradient>
						
							<path style="mask:url(#SVGID_00000099631636581619848660000006146853743690660773_);fill:url(#SVGID_00000181049633631096818100000009445844754574356155_);" d="
							M17.347,354.911v-86.792V119.745v-86.79c0-12.734,9.642-12.995,9.642-12.995h110.238h9.381h110.241
							c0,0,2.076,0.058,4.303,1.392c-2.483-1.821-5.05-1.896-5.05-1.896H145.975h-9.373H26.476c0,0-9.634,0.262-9.634,13.014
							l0,86.915v148.59v86.917c0,12.75,9.633,13.012,9.633,13.012h0.513C26.989,367.904,17.347,367.643,17.347,354.911z"/>
					</g>
				</mask>
				
					<radialGradient id="SVGID_00000018203195613872894710000015743911320196592270_" cx="84.827" cy="120.8646" r="341.4543" gradientUnits="userSpaceOnUse">
					<stop  offset="0" style="stop-color:#FFFFFF"/>
					<stop  offset="0.1413" style="stop-color:#FFFFFF"/>
					<stop  offset="1" style="stop-color:#FFFFFF"/>
				</radialGradient>
				<path style="fill:url(#SVGID_00000018203195613872894710000015743911320196592270_);" d="M17.347,354.911v-86.792V119.745
					v-86.79c0-12.734,9.642-12.995,9.642-12.995h110.238h9.381h110.241c0,0,2.076,0.058,4.303,1.392
					c-2.483-1.821-5.05-1.896-5.05-1.896H145.975h-9.373H26.476c0,0-9.634,0.262-9.634,13.014l0,86.915v148.59v86.917
					c0,12.75,9.633,13.012,9.633,13.012h0.513C26.989,367.904,17.347,367.643,17.347,354.911z"/>
			</g>
			<g>
				<defs>
					
						<filter id="Adobe_OpacityMaskFilter_00000114075807243104447170000014364500213164265396_" filterUnits="userSpaceOnUse" x="16.835" y="44.634" width="0.505" height="300.454">
						<feFlood  style="flood-color:white;flood-opacity:1" result="back"/>
						<feBlend  in="SourceGraphic" in2="back" mode="normal"/>
					</filter>
				</defs>
				
					<mask maskUnits="userSpaceOnUse" x="16.835" y="44.634" width="0.505" height="300.454" id="SVGID_00000155828093879486923650000006469827398439727291_">
					<g style="filter:url(#Adobe_OpacityMaskFilter_00000114075807243104447170000014364500213164265396_);">
						<defs>
							
								<filter id="Adobe_OpacityMaskFilter_00000075150157054960389610000018032571044172093089_" filterUnits="userSpaceOnUse" x="16.835" y="44.634" width="0.505" height="300.454">
								<feFlood  style="flood-color:white;flood-opacity:1" result="back"/>
								<feBlend  in="SourceGraphic" in2="back" mode="normal"/>
							</filter>
						</defs>
						
							<mask maskUnits="userSpaceOnUse" x="16.835" y="44.634" width="0.505" height="300.454" id="SVGID_00000155828093879486923650000006469827398439727291_">
							<g style="filter:url(#Adobe_OpacityMaskFilter_00000075150157054960389610000018032571044172093089_);">
							</g>
						</mask>
						
							<radialGradient id="SVGID_00000039115024552311413940000010804505937720529064_" cx="341.1118" cy="19.2973" r="400.8553" gradientTransform="matrix(-1 0 0 1 617.418 0)" gradientUnits="userSpaceOnUse">
							<stop  offset="0.0988" style="stop-color:#000000"/>
							<stop  offset="1" style="stop-color:#FFFFFF"/>
						</radialGradient>
						
							<path style="mask:url(#SVGID_00000155828093879486923650000006469827398439727291_);fill:url(#SVGID_00000039115024552311413940000010804505937720529064_);" d="
							M16.835,44.634v300.454c0.168-0.608,0.333-1.218,0.503-1.825l0.002-75.648V50.081C17.167,48.265,17,46.449,16.835,44.634z"/>
					</g>
				</mask>
				
					<radialGradient id="SVGID_00000172435366838844899050000017271430985355132559_" cx="341.1118" cy="19.2973" r="400.8553" gradientTransform="matrix(-1 0 0 1 617.418 0)" gradientUnits="userSpaceOnUse">
					<stop  offset="0.0988" style="stop-color:#FFFFFF"/>
					<stop  offset="1" style="stop-color:#ABABAB"/>
				</radialGradient>
				<path style="fill:url(#SVGID_00000172435366838844899050000017271430985355132559_);" d="M16.835,44.634v300.454
					c0.168-0.608,0.333-1.218,0.503-1.825l0.002-75.648V50.081C17.167,48.265,17,46.449,16.835,44.634z"/>
			</g>
		</g>
		<g>
			<g>
				<g>
					<path d="M36.608,88.71c-0.542,6.477-4.194,11.011-4.194,11.011h4.194h4.194C40.802,99.721,37.15,95.187,36.608,88.71z"/>
					<path d="M42.685,81.379c-0.833,0-1.627,0.17-2.349,0.474c-0.02-0.019-0.037-0.037-0.055-0.056
						c1.461-1.109,2.404-2.864,2.404-4.839c0-3.357-2.72-6.077-6.077-6.077c-3.355,0-6.075,2.72-6.075,6.077
						c0,2.113,1.08,3.975,2.719,5.063c-0.818-0.411-1.741-0.643-2.719-0.643c-3.356,0-6.077,2.72-6.077,6.077
						c0,3.355,2.72,6.075,6.077,6.075c3.267,0,5.931-2.578,6.069-5.811c0.004,0.002,0.009,0.005,0.014,0.008
						c0.143,3.229,2.804,5.803,6.069,5.803c3.355,0,6.077-2.72,6.077-6.075C48.762,84.099,46.041,81.379,42.685,81.379z"/>
				</g>
				<path d="M40.228,64.527v-1.078c0.732-0.148,1.278-0.309,1.639-0.484c0.36-0.176,0.627-0.421,0.803-0.737
					c0.176-0.314,0.264-0.737,0.264-1.265c0-0.498-0.059-1.037-0.177-1.617c-0.117-0.581-0.285-1.229-0.505-1.948l-0.813-2.838
					H31.184l-0.748,2.156c-0.381,1.086-0.63,1.908-0.748,2.465c-0.118,0.559-0.177,1.063-0.177,1.518
					c0,0.88,0.225,1.527,0.672,1.936c0.447,0.412,1.133,0.684,2.057,0.815v1.078h-9.395v-1.078c0.821-0.132,1.536-0.61,2.145-1.431
					c0.609-0.821,1.2-1.995,1.772-3.521l9.174-24.356h3.478l7.481,24.532c0.353,1.145,0.663,2.018,0.935,2.619
					c0.271,0.603,0.598,1.072,0.979,1.409c0.381,0.338,0.902,0.588,1.563,0.749v1.078H40.228z M31.778,52.645h9.198l-4.182-14.192
					L31.778,52.645z"/>
			</g>
			<g>
				<g>
					<path d="M245.29,297.734c0.541-6.476,4.194-11.011,4.194-11.011h-4.194h-4.194C241.096,286.723,244.747,291.258,245.29,297.734
						z"/>
					<path d="M239.213,305.065c0.832,0,1.627-0.17,2.349-0.474c0.019,0.019,0.037,0.037,0.055,0.056
						c-1.46,1.109-2.404,2.864-2.404,4.839c0,3.357,2.72,6.077,6.077,6.077c3.355,0,6.075-2.72,6.075-6.077
						c0-2.113-1.08-3.975-2.718-5.063c0.818,0.411,1.741,0.643,2.718,0.643c3.357,0,6.077-2.72,6.077-6.077
						c0-3.355-2.72-6.075-6.077-6.075c-3.266,0-5.931,2.578-6.069,5.811c-0.004-0.002-0.009-0.004-0.013-0.008
						c-0.143-3.229-2.804-5.802-6.069-5.802c-3.355,0-6.077,2.72-6.077,6.075C233.136,302.345,235.857,305.065,239.213,305.065z"/>
				</g>
				<path d="M241.67,321.917v1.078c-0.732,0.148-1.279,0.309-1.64,0.484c-0.36,0.176-0.627,0.421-0.803,0.737
					c-0.175,0.315-0.264,0.737-0.264,1.265c0,0.498,0.059,1.037,0.177,1.617c0.117,0.58,0.285,1.229,0.505,1.948l0.813,2.838h10.254
					l0.748-2.156c0.381-1.085,0.631-1.908,0.748-2.464c0.118-0.559,0.177-1.063,0.177-1.518c0-0.88-0.225-1.527-0.672-1.936
					c-0.448-0.412-1.133-0.683-2.057-0.815v-1.078h9.395v1.078c-0.821,0.132-1.535,0.61-2.144,1.431
					c-0.61,0.821-1.2,1.995-1.772,3.521l-9.175,24.357h-3.478l-7.481-24.532c-0.353-1.145-0.663-2.018-0.935-2.619
					c-0.271-0.602-0.598-1.072-0.979-1.409c-0.381-0.338-0.902-0.588-1.563-0.749v-1.078H241.67z M250.12,333.799h-9.199
					l4.182,14.192L250.12,333.799z"/>
			</g>
			<g>
				<path d="M141.244,200.159c-1.075,12.852-8.323,21.854-8.323,21.854h8.323h8.323C149.566,222.012,142.32,213.011,141.244,200.159
					z"/>
				<path d="M153.304,185.607c-1.654,0-3.229,0.336-4.664,0.942c-0.037-0.037-0.072-0.074-0.108-0.113
					c2.899-2.202,4.771-5.683,4.771-9.605c0-6.661-5.399-12.058-12.06-12.058c-6.66,0-12.058,5.398-12.058,12.058
					c0,4.195,2.143,7.892,5.396,10.051c-1.624-0.816-3.457-1.276-5.396-1.276c-6.662,0-12.06,5.4-12.06,12.061
					c0,6.66,5.398,12.058,12.06,12.058c6.483,0,11.77-5.119,12.044-11.535c0.011,0.005,0.018,0.01,0.027,0.019
					c0.285,6.408,5.568,11.516,12.047,11.516c6.66,0,12.059-5.398,12.059-12.058C165.362,191.006,159.964,185.607,153.304,185.607z"
					/>
			</g>
		</g>
	</g>
</g>
</svg>
